<svg width="97" height="125" viewBox="0 0 97 125" fill="none" xmlns="http://www.w3.org/2000/svg">
<g clip-path="url(#clip0_1167_3915)">
<path class="white" d="M53.015 1.89337L37.3824 8.73872L19.5165 31.7022L1.8934 41.3633C1.8934 41.3633 16.1667 74.5706 43.2082 75.2017C79.4254 76.0756 95.1066 58.501 95.1066 58.501C95.1066 58.501 72.3859 41.2662 71.4149 39.3243C70.444 37.3824 53.015 1.89337 53.015 1.89337Z" fill="white"/>
<path fillRule="evenodd" clipRule="evenodd" d="M17.7786 31.1626C26.084 28.6791 36.6485 27.2821 48.2518 29.0537C49.2855 29.2116 49.9955 30.1775 49.8377 31.2112C49.6798 32.2449 48.7139 32.955 47.6802 32.7971C36.7083 31.1219 26.7126 32.4436 18.8634 34.7906C10.9478 37.1576 5.40644 40.5067 3.23874 42.6957C2.50294 43.4387 1.30412 43.4445 0.561109 42.7087C-0.181905 41.9729 -0.187753 40.7741 0.548047 40.0311C3.3323 37.2195 9.53973 33.6262 17.7786 31.1626Z" fill="currentColor"/>
<path class="white" d="M68.8418 72.6287L37.3824 8.73877L8.64163 51.4615" fill="white"/>
<path fillRule="evenodd" clipRule="evenodd" d="M37.5097 6.84964C38.1838 6.89508 38.7826 7.29624 39.081 7.90233L70.5405 71.7922C71.0024 72.7304 70.6164 73.8653 69.6782 74.3273C68.7401 74.7892 67.6051 74.4032 67.1432 73.465L37.1282 12.5087L10.2126 52.5183C9.62894 53.386 8.45242 53.6161 7.58479 53.0325C6.71715 52.4488 6.48696 51.2723 7.07064 50.4046L35.8114 7.6819C36.1885 7.12135 36.8357 6.80419 37.5097 6.84964Z" fill="currentColor"/>
<path fillRule="evenodd" clipRule="evenodd" d="M52.2556 0.15902C53.1837 -0.24742 54.2674 0.148928 54.7143 1.05832L85.397 63.4917C85.8582 64.4302 85.4713 65.5649 84.5328 66.0261C83.5943 66.4873 82.4596 66.1004 81.9984 65.1619L52.1149 4.35456L38.1419 10.4732C37.184 10.8926 36.0674 10.4561 35.648 9.49824C35.2286 8.54036 35.665 7.42381 36.6229 7.00437L52.2556 0.15902Z" fill="currentColor"/>
<path d="M54.2773 24.8568C55.6715 24.8568 56.8018 23.7266 56.8018 22.3323C56.8018 20.9381 55.6715 19.8078 54.2773 19.8078C52.883 19.8078 51.7527 20.9381 51.7527 22.3323C51.7527 23.7266 52.883 24.8568 54.2773 24.8568Z" fill="currentColor"/>
<path d="M62.2392 41.3634C63.6335 41.3634 64.7638 40.2331 64.7638 38.8388C64.7638 37.4446 63.6335 36.3143 62.2392 36.3143C60.845 36.3143 59.7147 37.4446 59.7147 38.8388C59.7147 40.2331 60.845 41.3634 62.2392 41.3634Z" fill="currentColor"/>
<path d="M70.1526 57.8213C71.5469 57.8213 72.6772 56.691 72.6772 55.2968C72.6772 53.9025 71.5469 52.7723 70.1526 52.7723C68.7584 52.7723 67.6281 53.9025 67.6281 55.2968C67.6281 56.691 68.7584 57.8213 70.1526 57.8213Z" fill="currentColor"/>
<path class="color-filler" d="M51.2672 74.7162C45.7327 70.9294 37.3824 62.045 37.3824 62.045C37.3824 62.045 45.3443 49.8594 42.7227 40.6351C40.1011 31.4109 36.1201 30.4399 33.7898 32.042C27.7212 36.3143 29.032 50.7332 26.2162 51.9469C23.4004 53.1607 14.3218 60.1517 14.3218 60.1517C14.3218 60.1517 35.7317 76.2212 49.2282 76.6582C62.7247 77.0951 51.2672 74.7162 51.2672 74.7162Z" fill="#13EA5B"/>
<path fillRule="evenodd" clipRule="evenodd" d="M69.7749 38.3781C70.2974 37.4724 71.4553 37.1617 72.3611 37.6843C80.0741 42.1341 88.9842 48.7137 96.5254 57.2472C97.2178 58.0308 97.144 59.2273 96.3604 59.9198C95.5768 60.6122 94.3803 60.5384 93.6878 59.7548C86.4703 51.5876 77.9028 45.2532 70.4687 40.9643C69.563 40.4418 69.2523 39.2839 69.7749 38.3781Z" fill="currentColor"/>
<path fillRule="evenodd" clipRule="evenodd" d="M1.70142 39.4797C2.74173 39.3737 3.67101 40.1311 3.77702 41.1714C3.79714 41.3688 3.90963 41.8252 4.22528 42.5744C4.52735 43.2913 4.97198 44.1753 5.56434 45.1946C6.74804 47.2315 8.47807 49.7337 10.7154 52.4128C15.194 57.7756 21.6281 63.7547 29.634 68.1135C37.6257 72.4646 47.1544 75.1878 57.8934 74.1202C68.6293 73.0528 80.744 68.1802 93.8832 57.0559C94.6812 56.3803 95.876 56.4795 96.5516 57.2776C97.2273 58.0756 97.1281 59.2704 96.33 59.946C82.719 71.4697 69.9039 76.7316 58.2681 77.8884C46.6354 79.0449 36.3501 76.0818 27.8232 71.4393C19.3105 66.8045 12.5211 60.4826 7.80888 54.8401C5.4508 52.0164 3.59355 49.3399 2.29027 47.0973C1.63914 45.9769 1.11537 44.946 0.735615 44.0447C0.369455 43.1757 0.0867314 42.3107 0.00974964 41.5553C-0.0962687 40.515 0.66112 39.5857 1.70142 39.4797Z" fill="currentColor"/>
<path class="color-border-green" fillRule="evenodd" clipRule="evenodd" d="M33.7875 35.1377C32.7052 36.2226 31.6615 37.7925 30.862 39.6019C30.1234 41.2862 29.7426 42.949 29.3757 44.7197C29.3425 44.8801 29.3092 45.0422 29.2757 45.2058C28.9489 46.7986 28.594 48.5287 27.9389 50.2167C26.4058 54.167 23.3473 57.6434 16.1342 60.7275C15.1727 61.1386 14.06 60.6924 13.6489 59.7309C13.2378 58.7694 13.684 57.6567 14.6455 57.2456C21.1717 54.4553 23.3322 51.6204 24.4086 48.8467C24.9424 47.4712 25.2347 46.0521 25.5737 44.4065C25.6046 44.2567 25.6359 44.105 25.6677 43.9513C26.0394 42.1574 26.4839 40.1556 27.3952 38.0782L27.3972 38.0738C28.3453 35.9274 29.6315 33.9419 31.1067 32.4632C32.5393 31.0271 34.392 29.8358 36.4565 29.8453C38.6982 29.8555 40.4977 31.2555 41.7301 33.525C42.936 35.7457 43.7508 39.0213 44.124 43.4875C44.8626 52.3254 43.5952 57.3732 41.204 60.159C40.3169 61.1925 39.3332 61.8494 38.3639 62.2634C38.8304 62.5682 39.342 62.9062 39.9038 63.2852C43.7502 65.8801 49.0462 69.8256 52.8378 74.9493C53.4598 75.7899 53.2826 76.9756 52.4421 77.5976C51.6015 78.2196 50.4158 78.0425 49.7938 77.2019C46.4002 72.6159 41.5496 68.9635 37.786 66.4244C36.8986 65.8258 36.0029 65.2453 35.2187 64.737C34.451 64.2394 33.7901 63.8111 33.3485 63.5028C33.1005 63.3296 32.8587 63.1525 32.6532 62.9806C32.5017 62.8539 32.1689 62.5705 31.9419 62.1751C31.828 61.9769 31.5841 61.4849 31.6864 60.8368C31.808 60.0664 32.3208 59.606 32.7221 59.3925C33.0675 59.2086 33.394 59.162 33.5577 59.145C33.749 59.1252 33.9296 59.1272 34.077 59.1344C35.4838 59.2036 37.0768 59.1533 38.3306 57.6926C39.6898 56.1091 41.0683 52.3939 40.3504 43.8028C39.9954 39.5546 39.2445 36.883 38.4023 35.3321C37.5866 33.83 36.8554 33.6339 36.4392 33.632C35.8456 33.6293 34.9128 34.0098 33.7875 35.1377ZM35.028 60.0268C35.0285 60.0269 35.0355 60.0332 35.0473 60.0453C35.0333 60.0328 35.0275 60.0268 35.028 60.0268Z" fill="currentColor"/>
<path class="color-filler" d="M32.3333 53.2578C33.2557 49.1797 49.471 45.2958 48.7913 58.5981C48.1116 71.9004 28.3523 70.7838 32.3333 53.2578Z" fill="#FFF800"/>
<path class="color-border-yellow" fillRule="evenodd" clipRule="evenodd" d="M34.1808 53.6749C34.1795 53.6781 34.1794 53.6783 34.1801 53.6755L34.1797 53.6772C33.2586 57.7321 33.7642 60.5875 34.7875 62.4418C35.8046 64.2847 37.4246 65.3175 39.1469 65.6246C42.5607 66.2332 46.6191 64.0058 46.9004 58.5015C47.0504 55.5658 46.2657 53.888 45.2956 52.9154C44.2914 51.9086 42.8115 51.3791 41.0788 51.3018C39.3469 51.2246 37.5463 51.6136 36.1596 52.2309C35.4686 52.5385 34.9398 52.8766 34.5898 53.1871C34.2642 53.476 34.1904 53.6521 34.1808 53.6749ZM47.9768 50.2412C49.8847 52.1542 50.8721 54.9793 50.6822 58.6947C50.2838 66.4928 44.1227 70.3582 38.4822 69.3526C35.6773 68.8525 33.0615 67.1514 31.4721 64.2715C29.889 61.4029 29.4175 57.5465 30.487 52.8384C30.7232 51.7964 31.3871 50.9662 32.0767 50.3544C32.7873 49.724 33.6714 49.1935 34.6196 48.7714C36.5115 47.9292 38.8951 47.4139 41.2474 47.5188C43.5988 47.6236 46.1029 48.3624 47.9768 50.2412Z" fill="currentColor"/>
</g>
<path d="M7.10625 95.5094C7.30883 95.5791 7.52159 95.6149 7.73589 95.6153L7.74096 95.6229C8.02916 95.6224 8.31359 95.5578 8.5736 95.4338C8.83355 95.3097 9.06249 95.1293 9.2437 94.9058C9.42491 94.6823 9.55388 94.4213 9.62108 94.1417C9.68834 93.8622 9.69219 93.5712 9.63231 93.29C11.0376 92.6995 13.5562 92.0206 16.5514 91.5314C15.222 100.377 15.6722 117.425 18.1134 123.762C18.254 124.126 18.502 124.44 18.8248 124.661C19.1475 124.882 19.5298 125 19.9214 125C20.1602 124.998 20.3967 124.953 20.6193 124.866C21.0982 124.682 21.4844 124.316 21.693 123.849C21.9016 123.381 21.9156 122.85 21.7319 122.372C19.468 116.503 19.1243 98.6939 20.5593 91.0337C23.9235 90.7481 27.5052 90.7852 30.6199 91.4439C31.1229 91.5499 31.6475 91.4523 32.0783 91.1725C32.5091 90.8927 32.8109 90.4537 32.9172 89.9521C33.0235 89.4504 32.9256 88.9272 32.6451 88.4975C32.3646 88.0677 31.9244 87.7668 31.4215 87.6608C27.0167 86.7276 21.13 86.7856 15.2787 87.8171C9.04821 88.9142 5.61687 90.4451 5.08336 92.3695C4.80266 93.401 5.15923 94.8411 7.10625 95.5094Z" fill="currentColor"/>
<path fillRule="evenodd" clipRule="evenodd" d="M38.2338 119.462C38.4114 119.442 38.5857 119.398 38.7516 119.33C38.9866 119.234 39.2002 119.093 39.3803 118.914C39.5604 118.736 39.7035 118.524 39.8014 118.29C39.8992 118.056 39.9499 117.806 39.9506 117.552C39.9506 113.943 39.4474 110.521 38.9594 107.212C38.7293 105.648 38.5118 104.168 38.3525 102.705C37.9176 98.7579 34.6531 96.8563 31.6415 97.0227C28.7488 97.1816 25.8257 99.2547 25.8257 102.914C25.8257 103.426 26.0295 103.917 26.3923 104.278C26.7551 104.64 27.2471 104.844 27.7601 104.844C28.2732 104.844 28.7652 104.64 29.1279 104.278C29.4907 103.917 29.6945 103.426 29.6945 102.914C29.6945 101.086 31.4873 100.897 31.8464 100.876C32.2459 100.856 34.2486 100.856 34.5014 103.126C34.5973 104.008 34.715 104.906 34.841 105.801C34.3272 105.829 33.8125 105.836 33.2978 105.825C30.9032 105.832 28.1799 105.842 26.4706 107.689C25.4338 108.808 24.9837 110.405 25.1379 112.422C25.3908 115.701 25.6892 118.137 27.4137 119.484C28.3139 120.188 29.3608 120.46 30.754 120.46C32.262 120.46 34.1793 120.141 36.7618 119.711L36.8354 119.699L38.2338 119.462ZM35.3981 109.634C34.7035 109.682 34.0069 109.698 33.3105 109.683C31.6972 109.683 29.8715 109.683 29.3051 110.306C29.0345 110.599 28.9208 111.247 28.9891 112.13C29.0699 113.202 29.2849 116.044 29.7982 116.445C30.3027 116.839 33.0881 116.41 36.0401 115.916C35.9471 113.795 35.689 111.695 35.3981 109.634Z" fill="currentColor"/>
<path d="M46.5478 124.276C46.1308 124.276 45.725 124.141 45.391 123.892C45.057 123.643 44.8126 123.293 44.6943 122.894C42.8155 116.589 43.6146 98.3896 44.8005 92.1248C44.9231 91.6501 45.2223 91.2397 45.6373 90.977C46.0523 90.7143 46.552 90.6191 47.0348 90.7106C47.5177 90.8021 47.9476 91.0735 48.237 91.4697C48.5265 91.8659 48.654 92.3571 48.5935 92.8436C47.3949 99.1664 46.8234 116.508 48.3962 121.789C48.4685 122.032 48.492 122.287 48.4656 122.539C48.4391 122.791 48.3631 123.035 48.2419 123.258C48.1208 123.481 47.9568 123.678 47.7594 123.837C47.562 123.997 47.335 124.116 47.0914 124.188C46.9155 124.243 46.7323 124.273 46.5478 124.276Z" fill="currentColor"/>
<path d="M53.1048 117.939C53.4611 118.266 53.9276 118.447 54.4118 118.448C54.4482 118.448 54.4846 118.448 54.5219 118.448C54.5389 118.449 54.5562 118.449 54.5736 118.45C55.0845 118.408 55.5579 118.166 55.8898 117.776C56.2217 117.387 56.3849 116.882 56.3437 116.372C55.9795 111.865 56.1237 110.42 56.4448 107.252L56.4773 106.931C56.5398 106.312 56.6086 105.631 56.6774 104.861C56.7004 104.609 56.6732 104.354 56.5976 104.113C56.5219 103.871 56.3992 103.646 56.2365 103.451C56.0737 103.257 55.8742 103.096 55.6492 102.978C55.4242 102.861 55.1782 102.788 54.9251 102.765C54.6721 102.743 54.417 102.77 54.1745 102.845C53.9319 102.921 53.7067 103.043 53.5116 103.205C53.3164 103.368 53.1553 103.567 53.0373 103.791C52.9193 104.015 52.8468 104.261 52.8238 104.513C52.7842 104.949 52.7458 105.356 52.7087 105.738C52.6699 106.138 52.6324 106.511 52.5962 106.864L52.5949 106.878C52.2721 110.069 52.0936 111.834 52.4875 116.682C52.5281 117.163 52.7484 117.612 53.1048 117.939Z" fill="currentColor"/>
<path d="M55.7191 100.647C55.5173 100.647 55.316 100.629 55.1173 100.594C54.6159 100.505 54.1699 100.222 53.8767 99.8071C53.5835 99.3918 53.4668 98.8778 53.5521 98.3771C53.5594 98.3308 53.5687 98.2849 53.5798 98.2394C53.5984 98.1636 53.622 98.0891 53.6507 98.0164C53.352 97.8074 53.1188 97.5182 52.978 97.1824C52.8373 96.8467 52.7947 96.4781 52.8553 96.1192C52.9159 95.7603 53.0771 95.4259 53.3204 95.1546C53.5636 94.8834 53.8789 94.6863 54.2297 94.5864C56.819 93.8423 58.0682 94.8537 58.5815 95.5246C58.9491 96.024 59.1559 96.6231 59.1744 97.2424C59.1929 97.8617 59.0223 98.472 58.6852 98.9924C58.377 99.501 57.9415 99.9209 57.4216 100.211C56.9016 100.501 56.3149 100.651 55.7191 100.647Z" fill="currentColor"/>
<path d="M62.6526 120.856C64.3367 122.256 66.9512 123.038 69.4318 123.038C70.6051 123.049 71.7705 122.846 72.8708 122.44C74.7242 121.721 75.8697 120.397 76.0973 118.712C76.6784 114.433 73.836 112.463 71.0868 110.558L71.0805 110.554C69.8413 109.727 68.654 108.826 67.5253 107.855C65.7502 106.279 66.0157 104.614 66.3317 103.757C66.6104 103 67.1062 102.342 67.7573 101.865C68.4085 101.388 69.1861 101.112 69.9932 101.073C71.7784 101.025 72.7215 101.714 73.0073 102.362C73.245 102.899 73.1059 103.497 72.6255 104.001C72.2774 104.373 72.0905 104.867 72.1055 105.375C72.1203 105.883 72.3359 106.365 72.7051 106.716C73.0743 107.066 73.5674 107.257 74.0772 107.247C74.587 107.237 75.0721 107.027 75.4272 106.662C76.9924 105.023 77.4197 102.778 76.5473 100.803C75.5258 98.4905 73.0427 97.1463 69.9122 97.2143C68.3262 97.266 66.7919 97.7899 65.5067 98.7184C64.2215 99.647 63.2443 100.938 62.7006 102.425C61.6007 105.414 62.4427 108.523 64.9562 110.748C66.1991 111.822 67.5072 112.818 68.873 113.731C71.834 115.782 72.5167 116.438 72.2639 118.203C72.2285 118.516 71.748 118.743 71.4699 118.851C69.6493 119.557 66.5644 119.091 65.1205 117.89C64.3898 117.285 64.3771 116.755 64.4631 116.317C64.5277 115.829 64.4029 115.334 64.1142 114.935C63.8255 114.536 63.3947 114.262 62.9101 114.169C62.4254 114.076 61.9235 114.172 61.5072 114.436C61.0907 114.7 60.7913 115.113 60.6702 115.59C60.2833 117.603 60.9685 119.456 62.6526 120.856Z" fill="currentColor"/>
<defs>
<clipPath id="clip0_1167_3915">
<rect class="white" width="97" height="78.1632" fill="white"/>
</clipPath>
</defs>
</svg>
