<svg width="200" height="162" viewBox="0 0 200 162" fill="none" xmlns="http://www.w3.org/2000/svg">
<g clip-path="url(#clip0_504_2)">
<path d="M65.4449 130.881C63.0661 134.405 60.185 138.344 57.8062 142.529C54.4229 140.617 51.1894 138.564 48.0969 136.405C50.652 131.462 53.489 127.207 55.5154 124.52C63.119 114.388 50.8194 103.427 41.7621 115.665C40 118.035 37.7533 122.018 35.7621 126.775C32.9163 124.282 30.2379 121.744 27.7445 119.216C29.6652 114.229 32.4053 109.692 35.815 105.921C36.3877 105.198 37.0044 104.502 37.6124 103.797C37.6388 103.771 37.7005 103.762 37.7269 103.727C37.7798 103.656 37.8767 103.612 37.9295 103.542L37.9824 103.48C38.4053 103.084 38.8634 102.652 39.3833 102.282C41.2335 100.881 43.1542 99.8149 45.1806 99.1101C51.6652 96.8281 58.8899 98.2378 64.5551 103.586C72.467 110.996 71.7621 122.943 65.4449 130.881Z" fill="url(#paint0_linear_504_2)"/>
<path d="M99.3128 109.075C103.463 121.78 92 140.784 86.4582 148.097C85.0925 149.912 84.3789 151.753 84.1674 153.48C80.1498 152.396 76.2555 151.092 72.4934 149.603C73.2952 146.775 74.6696 144.079 76.5374 141.727C84.5198 129.894 98.2291 113.383 79.2423 98.5814C75.8238 95.9294 73.2952 93.7356 62.5374 90.6255C69.5771 89.3303 76.0969 89.7356 83.3568 91.5858C88.4934 94.4845 96.5639 100.687 99.3128 109.075Z" fill="url(#paint1_linear_504_2)"/>
<path d="M112.722 156.89C108.573 157.004 104.52 156.855 100.573 156.458C105.357 149.683 113.172 132.194 110.361 119.137C108.678 111.542 106.432 106.009 97.5419 98.4053C99.1894 99.3744 100.793 100.485 102.344 101.718C119.295 117.507 120.731 140.37 112.722 156.89Z" fill="url(#paint2_linear_504_2)"/>
<path d="M45.3656 66.229C25.2158 71.1013 10.4669 79.4889 4.70483 85.3127" stroke="black" stroke-width="8.82" stroke-linecap="round" stroke-linejoin="round"/>
<path d="M196.062 120.502C180.907 103.357 162.969 90.1056 147.419 81.1365" stroke="black" stroke-width="8.82" stroke-linecap="round" stroke-linejoin="round"/>
<path d="M141.921 149.101L77.5595 18.3347L18.4934 106.211" stroke="black" stroke-width="8.82" stroke-linecap="round" stroke-linejoin="round"/>
<path d="M77.5595 18.3348L109.648 4.28198L173.339 133.886" stroke="black" stroke-width="8.82" stroke-linecap="round" stroke-linejoin="round"/>
<path d="M112.238 51.4274C115.099 51.4274 117.418 49.108 117.418 46.2468C117.418 43.3856 115.099 41.0662 112.238 41.0662C109.377 41.0662 107.057 43.3856 107.057 46.2468C107.057 49.108 109.377 51.4274 112.238 51.4274Z" fill="black"/>
<path d="M128.59 85.3129C131.451 85.3129 133.771 82.9934 133.771 80.1323C133.771 77.2711 131.451 74.9517 128.59 74.9517C125.729 74.9517 123.41 77.2711 123.41 80.1323C123.41 82.9934 125.729 85.3129 128.59 85.3129Z" fill="black"/>
<path d="M144.837 119.101C147.698 119.101 150.018 116.782 150.018 113.921C150.018 111.059 147.698 108.74 144.837 108.74C141.976 108.74 139.656 111.059 139.656 113.921C139.656 116.782 141.976 119.101 144.837 119.101Z" fill="black"/>
<path d="M4.70483 85.3127C5.19823 90.2202 13.3833 104.608 27.7445 119.216C30.2379 121.744 32.9163 124.282 35.7621 126.775C39.5595 130.106 43.6828 133.348 48.0969 136.405C51.1894 138.564 54.4229 140.617 57.8062 142.529C62.4405 145.172 67.3392 147.559 72.4934 149.603C76.2555 151.092 80.1498 152.396 84.1674 153.48C89.4273 154.89 94.8987 155.912 100.573 156.458C104.52 156.855 108.573 157.004 112.722 156.89C137.515 156.238 165.648 146.255 196.07 120.502" stroke="black" stroke-width="8.82" stroke-linecap="round" stroke-linejoin="round"/>
</g>
<defs>
<linearGradient id="paint0_linear_504_2" x1="115.921" y1="120.291" x2="14.3701" y2="120.291" gradientUnits="userSpaceOnUse">
<stop stop-color="#02ECFC"/>
<stop offset="1" stop-color="#0185F8"/>
</linearGradient>
<linearGradient id="paint1_linear_504_2" x1="114.441" y1="121.674" x2="24.6432" y2="121.674" gradientUnits="userSpaceOnUse">
<stop stop-color="#02ECFC"/>
<stop offset="1" stop-color="#0185F8"/>
</linearGradient>
<linearGradient id="paint2_linear_504_2" x1="124.943" y1="127.665" x2="77.5331" y2="127.665" gradientUnits="userSpaceOnUse">
<stop stop-color="#02ECFC"/>
<stop offset="1" stop-color="#0185F8"/>
</linearGradient>
<clipPath id="clip0_504_2">
<rect width="200" height="161.233" fill="white"/>
</clipPath>
</defs>
</svg>
