<?xml version="1.0" encoding="utf-8"?>
<!-- Generator: Adobe Illustrator 26.1.0, SVG Export Plug-In . SVG Version: 6.00 Build 0)  -->
<svg version="1.1" id="Calque_1" xmlns="http://www.w3.org/2000/svg" xmlns:xlink="http://www.w3.org/1999/xlink" x="0px" y="0px"
	 viewBox="0 0 199.8 161" style="enable-background:new 0 0 199.8 161;" xml:space="preserve">
<style type="text/css">
	.st0{fill:none;stroke:#FFFFFF;stroke-width:7.8;stroke-linecap:round;stroke-linejoin:round;}
	.st1{stroke:#FFFFFF;stroke-width:7.8;stroke-linecap:round;stroke-linejoin:round;}
	.st2{fill:#FFFFFF;}
	.st3{fill:none;stroke:#13EA5B;stroke-width:7.8;stroke-linecap:round;stroke-linejoin:round;}
	.st4{stroke:#FFF800;stroke-width:7.8;stroke-linecap:round;stroke-linejoin:round;}
</style>
<path class="st0" d="M98.8,63.7C52.3,56.6,14.1,74.9,3.9,85.2"/>
<path class="st0" d="M195.9,120.5C180.7,103.3,162.7,90,147.1,81"/>
<polyline class="st1" points="140.3,146.6 77,18 19.6,103.4 "/>
<polyline class="st0" points="77,18 109.2,3.9 172.4,132.5 "/>
<circle class="st2" cx="111.8" cy="46" r="5.2"/>
<circle class="st2" cx="128.2" cy="80" r="5.2"/>
<circle class="st2" cx="144.5" cy="113.9" r="5.2"/>
<path d="M105.6,153.9C94.2,146.1,77,127.8,77,127.8s16.4-25.1,11-44.1S74.4,62.7,69.6,66c-12.5,8.8-9.8,38.5-15.6,41
	s-24.5,16.9-24.5,16.9s44.1,33.1,71.9,34S105.6,153.9,105.6,153.9z"/>
<path class="st3" d="M31.7,121.5C60,109.4,53.2,95.5,60,80c7.2-16.3,24-26,27,9.9S76.1,126,70,125.7s20.9,11,35.7,31"/>
<path class="st4" d="M66.6,109.7c1.9-8.4,35.3-16.4,33.9,11S58.4,145.8,66.6,109.7z"/>
<path class="st0" d="M195.9,120.5C85.7,213.8,5.5,100.9,3.9,85.2"/>
</svg>
