<?xml version="1.0" encoding="utf-8"?>
<!-- Generator: Adobe Illustrator 26.1.0, SVG Export Plug-In . SVG Version: 6.00 Build 0)  -->
<svg version="1.1" xmlns="http://www.w3.org/2000/svg" xmlns:xlink="http://www.w3.org/1999/xlink" x="0px" y="0px"
	 viewBox="0 0 132.6 72.9" style="enable-background:new 0 0 132.6 72.9;" xml:space="preserve">
<style type="text/css">
	.st0{fill:#FFFFFF;}
	.st1{fill:none;stroke:#FFFFFF;stroke-width:2.4084;stroke-linecap:round;stroke-linejoin:round;}
	.st2{stroke:#FFFFFF;stroke-width:2.4084;stroke-linecap:round;stroke-linejoin:round;}
	.st3{fill:none;stroke:#13EA5B;stroke-width:2.4084;stroke-linecap:round;stroke-linejoin:round;}
	.st4{stroke:#FFF800;stroke-width:2.4084;stroke-linecap:round;stroke-linejoin:round;}
</style>
<g id="Calque_2">
</g>
<g id="Calque_1">
	<g>
		<path class="st0" d="M84.2,40.1c-0.5,0-0.9-0.3-1.1-0.8c-1.7-4.3-1.8-16.8-0.7-21.6c0.2-0.6,0.8-1,1.4-0.9
			c0.7,0.1,1.1,0.8,0.9,1.5c-1,4.4-0.9,16.3,0.6,20.2c0.2,0.6-0.1,1.3-0.7,1.6C84.4,40.1,84.3,40.1,84.2,40.1z"/>
		<path class="st0" d="M76.6,21.8c-0.1,0-0.3,0-0.4-0.1c-1.2-0.4-1.4-1.3-1.3-2c0.3-1.2,2.5-2.2,6.3-2.8c3.6-0.6,7.3-0.7,10.1-0.1
			c0.7,0.1,1.1,0.8,0.9,1.4s-0.8,1.1-1.4,0.9c-4.6-1-10.9,0.2-13.1,1.1c0.1,0.6-0.3,1.3-0.9,1.4C76.7,21.7,76.7,21.8,76.6,21.8
			L76.6,21.8z"/>
		<path class="st0" d="M95.4,36.6c-0.7,0-1.2-0.5-1.2-1.2l0,0c0-2.1-0.3-4.1-0.6-6.1c-0.1-1-0.3-1.9-0.4-2.9
			C93.1,25,91.8,25,91.6,25c-0.2,0-1.3,0.1-1.3,1.3c0,0.7-0.5,1.2-1.2,1.2c-0.7,0-1.2-0.5-1.2-1.2c0-2.3,1.8-3.6,3.6-3.7
			c1.9-0.1,3.9,1.1,4.2,3.5c0.1,0.9,0.2,1.8,0.4,2.8c0.3,2.1,0.6,4.2,0.6,6.5C96.6,36.1,96.1,36.6,95.4,36.6L95.4,36.6z"/>
		<path class="st0" d="M90.9,37.2c-0.9,0-1.5-0.2-2.1-0.6c-1.1-0.8-1.3-2.4-1.4-4.4c-0.1-1.3,0.2-2.3,0.8-3c1.1-1.1,2.8-1.2,4.2-1.2
			c0.6,0,1.1,0,1.7-0.1c0.7-0.1,1.3,0.4,1.4,1c0.1,0.7-0.4,1.3-1,1.4l0,0c-0.7,0.1-1.4,0.1-2,0.1c-1,0-2.1,0-2.5,0.4
			c-0.2,0.2-0.2,0.6-0.2,1.1c0.1,0.7,0.2,2.4,0.5,2.7s2.1,0,4-0.3l0.9-0.2c0.7-0.1,1.3,0.3,1.4,1c0.1,0.7-0.3,1.3-1,1.4l-0.9,0.2
			C93.1,37,91.8,37.2,90.9,37.2z"/>
		<path class="st0" d="M100.7,39.6c-0.5,0-1-0.3-1.2-0.9c-1.2-3.9-0.7-15.3,0.1-19.2c0.2-0.6,0.8-1,1.5-0.9c0.6,0.1,1,0.7,0.9,1.3
			c-0.8,4-1.1,14.8-0.1,18.1c0.2,0.6-0.2,1.3-0.8,1.5l0,0C101,39.6,100.8,39.6,100.7,39.6z"/>
		<path class="st0" d="M105.6,36c-0.6,0-1.2-0.5-1.2-1.1c-0.2-3-0.1-4.1,0.1-6.1c0-0.4,0.1-0.9,0.1-1.5c0.1-0.7,0.7-1.1,1.3-1.1
			c0.7,0.1,1.2,0.6,1.1,1.3c-0.1,0.6-0.1,1-0.1,1.5c-0.2,2-0.3,2.9-0.1,5.7c0.1,0.7-0.4,1.2-1.1,1.3C105.7,36,105.7,36,105.6,36z"/>
		<path class="st0" d="M106.4,24.9c-0.1,0-0.2,0-0.4,0c-0.7-0.1-1.1-0.7-1-1.4c0-0.1,0-0.1,0.1-0.2c-0.5-0.4-0.7-1.1-0.3-1.7
			c0.2-0.2,0.4-0.4,0.7-0.5c1.6-0.5,2.4,0.2,2.7,0.6c0.5,0.6,0.5,1.5,0.1,2.2C107.9,24.5,107.2,24.9,106.4,24.9z"/>
		<path class="st0" d="M115,38.9c-1.5,0-3.2-0.5-4.2-1.4s-1.5-2-1.2-3.3c0.2-0.6,0.8-1,1.5-0.9c0.6,0.2,1,0.7,0.9,1.3
			c-0.1,0.3-0.1,0.6,0.4,1c0.9,0.8,2.8,1,3.9,0.6c0.2-0.1,0.5-0.2,0.5-0.4c0.2-1.1-0.3-1.5-2.1-2.8c-0.8-0.6-1.7-1.2-2.4-1.9
			c-1.6-1.4-2.1-3.3-1.4-5.2c0.7-1.9,2.5-3.2,4.5-3.2c1.9,0,3.5,0.8,4.1,2.2c0.5,1.2,0.3,2.6-0.7,3.7c-0.5,0.5-1.2,0.5-1.7,0
			c-0.5-0.5-0.5-1.2,0-1.7c0.3-0.3,0.4-0.7,0.2-1c-0.2-0.4-0.8-0.8-1.9-0.8c-1,0-1.9,0.7-2.3,1.7c-0.2,0.5-0.4,1.6,0.7,2.6
			c0.7,0.6,1.4,1.2,2.2,1.7c1.7,1.2,3.5,2.4,3.1,5.1c-0.1,1-0.8,1.9-2,2.3C116.4,38.7,115.7,38.9,115,38.9z"/>
	</g>
	<path class="st1" d="M49.4,31.7c-14.6-2.2-26.6,3.5-29.8,6.7"/>
	<path class="st1" d="M79.9,49.5c-4.8-5.4-10.4-9.6-15.3-12.4"/>
	<polyline class="st2" points="62.5,57.7 42.6,17.4 24.6,44.2 	"/>
	<polyline class="st1" points="42.6,17.4 52.7,13 72.6,53.3 	"/>
	<circle class="st0" cx="53.5" cy="26.2" r="1.6"/>
	<circle class="st0" cx="58.7" cy="36.8" r="1.6"/>
	<circle class="st0" cx="63.8" cy="47.5" r="1.6"/>
	<path class="st3" d="M28.4,49.8c8.9-3.8,6.8-8.2,8.9-13c2.3-5.1,7.5-8.2,8.5,3.1c0.9,11.3-3.4,11.3-5.3,11.2
		c-1.9-0.1,6.6,3.5,11.2,9.7"/>
	<path class="st1" d="M79.9,49.5c-34.6,29.3-59.7-6.2-60.2-11.1"/>
	<path class="st4" d="M39.3,46.2c0.6-2.6,11.1-5.1,10.6,3.5S36.8,57.5,39.3,46.2z"/>
</g>
</svg>
